<svg width="24" height="23" viewBox="0 0 24 23" fill="none" xmlns="http://www.w3.org/2000/svg">
<path d="M24 14.1232V9.33142H21.0326L14.0085 2.84111C14.0873 2.61877 14.1307 2.37976 14.1307 2.13068C14.1307 0.955819 13.1749 0 12 0C10.8251 0 9.86932 0.955819 9.86932 2.13068C9.86932 2.37974 9.91267 2.61877 9.99155 2.84111L2.96739 9.33142H0V14.1232H0.838911L3.75375 22.6361H20.2462L23.161 14.1232L24 14.1232ZM15.903 16.6716H12.8412V14.1464H16.1524L15.903 16.6716ZM11.1588 20.9536H8.5198L8.2631 18.3541H11.1588V20.9536ZM8.09698 16.6716L7.84763 14.1464H11.1588V16.6716H8.09698ZM12.4482 2.13068C12.4482 2.2606 12.3923 2.37744 12.3037 2.45936C12.2238 2.53329 12.1172 2.57889 12 2.57889C11.8828 2.57889 11.7763 2.53329 11.6963 2.45936C11.6077 2.37741 11.5518 2.2606 11.5518 2.13068C11.5518 2.00076 11.6077 1.88393 11.6963 1.802C11.7762 1.72807 11.8828 1.68247 12 1.68247C12.1172 1.68247 12.2237 1.72807 12.3037 1.802C12.3923 1.88395 12.4482 2.00076 12.4482 2.13068ZM11.1336 4.07656C11.3985 4.19498 11.6916 4.26139 12 4.26139C12.3084 4.26139 12.6015 4.19498 12.8664 4.07656L18.5535 9.33147H5.44657L11.1336 4.07656ZM1.68247 11.0139H22.3175V12.4407H1.68247V11.0139ZM6.15699 14.1464L6.40634 16.6717H3.4899L2.62525 14.1464H6.15699ZM4.95605 20.9536L4.06597 18.3541H6.57249L6.82916 20.9536H4.95605ZM12.8412 18.3541H15.7369L15.4802 20.9536H12.8412V18.3541ZM19.044 20.9536H17.1708L17.4275 18.3541H19.934L19.044 20.9536ZM20.5101 16.6716H17.5937L17.843 14.1464H21.3748L20.5101 16.6716Z" fill="#FC427B"/>
</svg>
