<?xml version="1.0" encoding="UTF-8"?>
<svg xmlns="http://www.w3.org/2000/svg" xmlns:xlink="http://www.w3.org/1999/xlink" viewBox="0 0 100 100" width="100px" height="100px">
<g id="surface67204218">
<path style=" stroke:none;fill-rule:nonzero;fill:rgb(98.823529%,25.882354%,48.235294%);fill-opacity:1;" d="M 50 8.125 C 24.828125 8.125 4.125 25.851562 4.125 48 C 4.125 60.851562 11.25 72.1875 22 79.4375 C 21.984375 79.867188 22 80.53125 21.4375 82.625 C 20.742188 85.210938 19.367188 88.875 16.5 92.9375 L 14.4375 95.8125 L 18 95.875 C 30.351562 95.929688 37.507812 87.8125 38.625 86.5 C 42.273438 87.3125 46.070312 87.875 50 87.875 C 75.164062 87.875 95.875 70.148438 95.875 48 C 95.875 25.851562 75.164062 8.125 50 8.125 Z M 50 11.875 C 73.429688 11.875 92.125 28.179688 92.125 48 C 92.125 67.820312 73.429688 84.125 50 84.125 C 45.992188 84.125 42.101562 83.640625 38.4375 82.75 L 37.3125 82.5 L 36.5625 83.4375 C 36.5625 83.4375 30.78125 89.953125 21.5625 91.5 C 23.226562 88.515625 24.492188 85.742188 25.0625 83.625 C 25.859375 80.664062 25.875 78.625 25.875 78.625 L 25.875 77.625 L 25 77.0625 C 14.546875 70.4375 7.875 59.882812 7.875 48 C 7.875 28.179688 26.5625 11.875 50 11.875 Z M 50 11.875 "/>
</g>
</svg>
