<svg width="41" height="51" viewBox="0 0 41 51" fill="none" xmlns="http://www.w3.org/2000/svg">
<path d="M38.1075 12.5315C38.0629 12.0033 37.618 11.5986 37.0879 11.6038H29.3385V8.6671C29.3385 3.88028 25.4578 0 20.6714 0C15.8845 0 12.0043 3.88028 12.0043 8.6671V11.6038H4.25486C3.72711 11.6058 3.28658 12.0065 3.2352 12.5315L0.563776 43.2439C0.442293 44.6678 0.923445 46.0778 1.89093 47.1306C2.85801 48.1829 4.2222 48.7815 5.65171 48.7803H35.701C37.1305 48.7815 38.4947 48.1829 39.4618 47.1306C40.4293 46.0778 40.9108 44.6678 40.7893 43.2439L38.1075 12.5315ZM14.0436 8.6671C14.0436 5.00669 17.011 2.03932 20.6714 2.03932C24.3318 2.03932 27.2992 5.00669 27.2992 8.6671V11.6038H14.0436V8.6671ZM37.9546 45.752C37.3778 46.3869 36.5585 46.7466 35.701 46.741H5.64136C4.78381 46.7414 3.96569 46.3817 3.38576 45.75C2.80623 45.1179 2.51825 44.2715 2.59274 43.4172L5.18251 13.6431H12.0043V20.0056C10.3644 20.5103 9.34041 22.1382 9.59572 23.8349C9.85064 25.5313 11.3084 26.786 13.0239 26.786C14.7394 26.786 16.1968 25.5313 16.4521 23.8349C16.707 22.1382 15.683 20.5103 14.0436 20.0056V13.6328H27.2992V20.0056C25.6593 20.5103 24.6353 22.1382 24.8906 23.8349C25.1455 25.5313 26.6033 26.786 28.3188 26.786C30.0343 26.786 31.4917 25.5313 31.747 23.8349C32.0019 22.1382 30.9779 20.5103 29.3385 20.0056V13.6328H36.1499L38.7396 43.4068C38.8233 44.2648 38.5377 45.1175 37.9546 45.752ZM12.871 21.9024C12.9725 21.9159 13.0753 21.9159 13.1769 21.9024C13.9309 21.9836 14.4901 22.6408 14.4495 23.398C14.4084 24.1556 13.7823 24.749 13.0239 24.749C12.2652 24.749 11.639 24.1556 11.5984 23.398C11.5578 22.6408 12.1166 21.9836 12.871 21.9024ZM28.1659 21.9024C28.2674 21.9159 28.3702 21.9159 28.4718 21.9024C29.2257 21.9836 29.785 22.6408 29.7443 23.398C29.7033 24.1556 29.0772 24.749 28.3188 24.749C27.56 24.749 26.9339 24.1556 26.8933 23.398C26.8527 22.6408 27.4115 21.9836 28.1659 21.9024Z" fill="#5B49CF"/>
<path d="M17.892 39.444H12.654L11.754 42H9.612L14.094 29.472H16.47L20.952 42H18.792L17.892 39.444ZM17.316 37.77L15.282 31.956L13.23 37.77H17.316ZM27.0228 42.126C26.1828 42.126 25.4268 41.982 24.7548 41.694C24.0828 41.394 23.5548 40.974 23.1708 40.434C22.7868 39.894 22.5948 39.264 22.5948 38.544H24.7908C24.8388 39.084 25.0488 39.528 25.4208 39.876C25.8048 40.224 26.3388 40.398 27.0228 40.398C27.7308 40.398 28.2828 40.23 28.6788 39.894C29.0748 39.546 29.2728 39.102 29.2728 38.562C29.2728 38.142 29.1468 37.8 28.8948 37.536C28.6548 37.272 28.3488 37.068 27.9768 36.924C27.6168 36.78 27.1128 36.624 26.4648 36.456C25.6488 36.24 24.9828 36.024 24.4668 35.808C23.9628 35.58 23.5308 35.232 23.1708 34.764C22.8108 34.296 22.6308 33.672 22.6308 32.892C22.6308 32.172 22.8108 31.542 23.1708 31.002C23.5308 30.462 24.0348 30.048 24.6828 29.76C25.3308 29.472 26.0808 29.328 26.9328 29.328C28.1448 29.328 29.1348 29.634 29.9028 30.246C30.6828 30.846 31.1148 31.674 31.1988 32.73H28.9308C28.8948 32.274 28.6788 31.884 28.2828 31.56C27.8868 31.236 27.3648 31.074 26.7168 31.074C26.1288 31.074 25.6488 31.224 25.2768 31.524C24.9048 31.824 24.7188 32.256 24.7188 32.82C24.7188 33.204 24.8328 33.522 25.0608 33.774C25.3008 34.014 25.6008 34.206 25.9608 34.35C26.3208 34.494 26.8128 34.65 27.4368 34.818C28.2648 35.046 28.9368 35.274 29.4528 35.502C29.9808 35.73 30.4248 36.084 30.7848 36.564C31.1568 37.032 31.3428 37.662 31.3428 38.454C31.3428 39.09 31.1688 39.69 30.8208 40.254C30.4848 40.818 29.9868 41.274 29.3268 41.622C28.6788 41.958 27.9108 42.126 27.0228 42.126Z" fill="#FC427B"/>
</svg>
