<svg width="172" height="22" viewBox="0 0 172 22" fill="none" xmlns="http://www.w3.org/2000/svg">
<path d="M16 0L19.5922 11.0557H31.2169L21.8123 17.8885L25.4046 28.9443L16 22.1115L6.59544 28.9443L10.1877 17.8885L0.783095 11.0557H12.4078L16 0Z" fill="#FFD700"/>
<path d="M51 0L54.5922 11.0557H66.2169L56.8123 17.8885L60.4046 28.9443L51 22.1115L41.5954 28.9443L45.1877 17.8885L35.7831 11.0557H47.4078L51 0Z" fill="#EBEBEB"/>
<path d="M86 0L89.5922 11.0557H101.217L91.8123 17.8885L95.4046 28.9443L86 22.1115L76.5954 28.9443L80.1877 17.8885L70.7831 11.0557H82.4078L86 0Z" fill="#EBEBEB"/>
<path d="M121 0L124.592 11.0557H136.217L126.812 17.8885L130.405 28.9443L121 22.1115L111.595 28.9443L115.188 17.8885L105.783 11.0557H117.408L121 0Z" fill="#EBEBEB"/>
<path d="M156 0L159.592 11.0557H171.217L161.812 17.8885L165.405 28.9443L156 22.1115L146.595 28.9443L150.188 17.8885L140.783 11.0557H152.408L156 0Z" fill="#EBEBEB"/>
</svg>
